<mxfile host="65bd71144e">
    <diagram id="hFhUSjk1MA1oA-_hTkuV" name="Arch">
        <mxGraphModel dx="896" dy="382" grid="1" gridSize="10" guides="1" tooltips="1" connect="1" arrows="1" fold="1" page="1" pageScale="1" pageWidth="850" pageHeight="1100" math="0" shadow="0">
            <root>
                <mxCell id="0"/>
                <mxCell id="1" parent="0"/>
                <mxCell id="tm3Og35l5cN_DZpNoTE_-4" value="" style="rounded=0;whiteSpace=wrap;html=1;" parent="1" vertex="1">
                    <mxGeometry x="290" y="250" width="245" height="200" as="geometry"/>
                </mxCell>
                <mxCell id="tm3Og35l5cN_DZpNoTE_-5" value="DB" style="shape=cylinder3;whiteSpace=wrap;html=1;boundedLbl=1;backgroundOutline=1;size=15;" parent="1" vertex="1">
                    <mxGeometry x="445" y="313" width="50" height="74" as="geometry"/>
                </mxCell>
                <mxCell id="pebHmvDTpb69UCx6Zf2E-1" style="edgeStyle=none;html=1;" edge="1" parent="1" source="tm3Og35l5cN_DZpNoTE_-6" target="tm3Og35l5cN_DZpNoTE_-5">
                    <mxGeometry relative="1" as="geometry"/>
                </mxCell>
                <mxCell id="tm3Og35l5cN_DZpNoTE_-6" value="" style="sketch=0;html=1;dashed=0;whitespace=wrap;fillColor=#2875E2;strokeColor=#ffffff;points=[[0.005,0.63,0],[0.1,0.2,0],[0.9,0.2,0],[0.5,0,0],[0.995,0.63,0],[0.72,0.99,0],[0.5,1,0],[0.28,0.99,0]];verticalLabelPosition=bottom;align=center;verticalAlign=top;shape=mxgraph.kubernetes.icon;prIcon=api" parent="1" vertex="1">
                    <mxGeometry x="330" y="313" width="70" height="74" as="geometry"/>
                </mxCell>
                <mxCell id="tm3Og35l5cN_DZpNoTE_-12" value="Container" style="text;html=1;strokeColor=none;fillColor=none;align=center;verticalAlign=middle;whiteSpace=wrap;rounded=0;" parent="1" vertex="1">
                    <mxGeometry x="475" y="420" width="60" height="30" as="geometry"/>
                </mxCell>
            </root>
        </mxGraphModel>
    </diagram>
    <diagram id="pFLqO1RBvWHRIaptwd8f" name="Endpoints">
        <mxGraphModel dx="1280" dy="546" grid="1" gridSize="10" guides="1" tooltips="1" connect="1" arrows="1" fold="1" page="1" pageScale="1" pageWidth="850" pageHeight="1100" math="0" shadow="0">
            <root>
                <mxCell id="0"/>
                <mxCell id="1" parent="0"/>
                <mxCell id="1KtCr0TROu72--YiekQc-2" value="" style="rounded=0;whiteSpace=wrap;html=1;direction=south;" vertex="1" parent="1">
                    <mxGeometry x="145" y="125" width="210" height="510" as="geometry"/>
                </mxCell>
                <mxCell id="1KtCr0TROu72--YiekQc-4" value="" style="group" vertex="1" connectable="0" parent="1">
                    <mxGeometry x="190" y="190" width="120" height="380" as="geometry"/>
                </mxCell>
                <mxCell id="7-R_SGk63EhpofCJVkSg-6" value="Get Tasks&lt;br&gt;&lt;br&gt;GET /task" style="rounded=0;whiteSpace=wrap;html=1;" parent="1KtCr0TROu72--YiekQc-4" vertex="1">
                    <mxGeometry width="120" height="60" as="geometry"/>
                </mxCell>
                <mxCell id="7-R_SGk63EhpofCJVkSg-7" value="Create Task&lt;br&gt;POST /task" style="rounded=0;whiteSpace=wrap;html=1;" parent="1KtCr0TROu72--YiekQc-4" vertex="1">
                    <mxGeometry y="80" width="120" height="60" as="geometry"/>
                </mxCell>
                <mxCell id="7-R_SGk63EhpofCJVkSg-8" value="Get Task By Id&lt;br&gt;POST /task/:id" style="rounded=0;whiteSpace=wrap;html=1;" parent="1KtCr0TROu72--YiekQc-4" vertex="1">
                    <mxGeometry y="160" width="120" height="60" as="geometry"/>
                </mxCell>
                <mxCell id="7-R_SGk63EhpofCJVkSg-9" value="Update Task&lt;br&gt;PUT /task/:id" style="rounded=0;whiteSpace=wrap;html=1;" parent="1KtCr0TROu72--YiekQc-4" vertex="1">
                    <mxGeometry y="240" width="120" height="60" as="geometry"/>
                </mxCell>
                <mxCell id="7-R_SGk63EhpofCJVkSg-10" value="DELETE TASK&lt;br&gt;&amp;nbsp; &amp;nbsp;DELETE /task/:id" style="rounded=0;whiteSpace=wrap;html=1;" parent="1KtCr0TROu72--YiekQc-4" vertex="1">
                    <mxGeometry y="320" width="120" height="60" as="geometry"/>
                </mxCell>
                <mxCell id="1KtCr0TROu72--YiekQc-5" value="Task Endpoint" style="text;html=1;strokeColor=none;fillColor=none;align=center;verticalAlign=middle;whiteSpace=wrap;rounded=0;" vertex="1" parent="1">
                    <mxGeometry x="205" y="140" width="90" height="30" as="geometry"/>
                </mxCell>
            </root>
        </mxGraphModel>
    </diagram>
    <diagram id="NjOAvDWSJptEpxsEqVLB" name="Threats">
        <mxGraphModel dx="896" dy="382" grid="1" gridSize="10" guides="1" tooltips="1" connect="1" arrows="1" fold="1" page="1" pageScale="1" pageWidth="850" pageHeight="1100" math="0" shadow="0">
            <root>
                <mxCell id="0"/>
                <mxCell id="1" parent="0"/>
                <mxCell id="My5aGSfNuxbsD9Axf6Ff-1" value="Threats" style="rounded=0;whiteSpace=wrap;html=1;" vertex="1" parent="1">
                    <mxGeometry x="50" y="60" width="540" height="50" as="geometry"/>
                </mxCell>
                <mxCell id="My5aGSfNuxbsD9Axf6Ff-2" value="" style="rounded=0;whiteSpace=wrap;html=1;" vertex="1" parent="1">
                    <mxGeometry x="50" y="110" width="270" height="60" as="geometry"/>
                </mxCell>
                <mxCell id="My5aGSfNuxbsD9Axf6Ff-3" value="" style="rounded=0;whiteSpace=wrap;html=1;" vertex="1" parent="1">
                    <mxGeometry x="320" y="110" width="270" height="60" as="geometry"/>
                </mxCell>
            </root>
        </mxGraphModel>
    </diagram>
</mxfile>